<?xml version="1.0" encoding="UTF-8" standalone="no"?>
<!DOCTYPE svg PUBLIC "-//W3C//DTD SVG 1.1//EN"
"http://www.w3.org/Graphics/SVG/1.1/DTD/svg11.dtd">


<!-- Page 1 -->
<svg x="0" y="0" width="238" height="117" viewBox="0 0 238 117" version="1.1" xmlns="http://www.w3.org/2000/svg" xmlns:xlink="http://www.w3.org/1999/xlink"
style="display: block;margin-left: auto;margin-right: auto;">
<defs>
<clipPath id="c_1"><path d="M0,0H238V117H0Z"/></clipPath>
<style type="text/css"><![CDATA[

.g0{
fill: #EFF3FB;
stroke: #3366CC;
stroke-width: 1.217;
stroke-linecap: butt;
stroke-linejoin: miter;
}
.g1{
fill: none;
stroke: #000000;
stroke-width: 1.217;
stroke-linecap: butt;
stroke-linejoin: miter;
}
.g2{
stroke: #000000;
stroke-width: 1.217;
stroke-linecap: butt;
stroke-linejoin: round;
}
.g3{
stroke: #000000;
stroke-width: 0.865;
stroke-linecap: butt;
stroke-linejoin: round;
}
.g4{
stroke: #000000;
stroke-width: 0.76;
stroke-linecap: butt;
stroke-linejoin: round;
}
.g5{
fill: none;
stroke: #994D4D;
stroke-width: 1.217;
stroke-linecap: butt;
stroke-linejoin: miter;
}
.g6{
fill: #994D4D;
stroke: #994D4D;
stroke-width: 2.128;
stroke-linecap: butt;
stroke-linejoin: round;
}
.g7{
fill: #994D4D;
stroke: #994D4D;
stroke-width: 2.435;
stroke-linecap: butt;
stroke-linejoin: round;
}
.g8{
fill: none;
stroke: #339966;
stroke-width: 1.826;
stroke-linecap: butt;
stroke-linejoin: miter;
stroke-dasharray: 5,5;
}

]]></style>

</defs>
<g clip-path="url(#c_1)">
<path d="M0,0
L0,117
L238,117
L238,0 Z " 
fill="#FFFFFF" fill-opacity='0.1' stroke="none"/>
<path d="M21.3,58.5c0,-3.3,-2.7,-6.1,-6.1,-6.1c-3.3,0,-6.1,2.8,-6.1,6.1c0,3.4,2.8,6.1,6.1,6.1c3.4,0,6.1,-2.7,6.1,-6.1Z" class="g0"/>
<path d="M64.6,101.8c0,-3.3,-2.7,-6.1,-6.1,-6.1c-3.3,0,-6.1,2.8,-6.1,6.1c0,3.4,2.8,6.1,6.1,6.1c3.4,0,6.1,-2.7,6.1,-6.1Z" class="g0"/>
<path d="M107.9,58.5c0,-3.3,-2.7,-6.1,-6.1,-6.1c-3.3,0,-6.1,2.8,-6.1,6.1c0,3.4,2.8,6.1,6.1,6.1c3.4,0,6.1,-2.7,6.1,-6.1Z" class="g0"/>
<path d="M64.6,15.2c0,-3.3,-2.7,-6.1,-6.1,-6.1c-3.3,0,-6.1,2.8,-6.1,6.1c0,3.4,2.8,6.1,6.1,6.1c3.4,0,6.1,-2.7,6.1,-6.1Z" class="g0"/>
<path d="M21.9,58.5c28.6,0,44.7,0,73.2,0" class="g1"/>
<path d="M94.2,58.5c-2,-.4,-4,-1.2,-6.4,-2.5c2.4,1.7,2.4,3.3,0,5.1c2.4,-1.4,4.4,-2.2,6.4,-2.6Z" class="g2"/>
<path d="M20,53.8C33.2,40.5,40.5,33.2,53.8,20" class="g1"/>
<path d="M53.2,20.6c-1.7,1.1,-3.7,1.9,-6.3,2.6c2.9,-.4,4,.7,3.6,3.7c.7,-2.7,1.6,-4.7,2.7,-6.3Z" class="g3"/>
<path d="M53.8,97.1C40.5,83.9,33.2,76.5,20,63.3" class="g1"/>
<path d="M20.6,63.9c1.1,1.7,1.9,3.6,2.6,6.3c-.4,-3,.7,-4.1,3.7,-3.7C24.2,65.8,22.2,65,20.6,63.9Z" class="g3"/>
<path d="M97.1,63.3C83.9,76.5,76.5,83.9,63.3,97.1" class="g1"/>
<path d="M63.9,96.5c1.7,-1.1,3.6,-2,6.3,-2.7c-3,.4,-4.1,-.7,-3.7,-3.6c-.7,2.6,-1.5,4.6,-2.6,6.3Z" class="g3"/>
<path d="M63.3,20C76.5,33.2,83.9,40.5,97.1,53.8" class="g1"/>
<path d="M96.5,53.2c-1.1,-1.7,-2,-3.7,-2.7,-6.3c.4,2.9,-.7,4,-3.6,3.6c2.6,.7,4.6,1.6,6.3,2.7Z" class="g3"/>
<path d="M185.9,58.5c0,-3.3,-2.7,-6.1,-6.1,-6.1c-3.4,0,-6.1,2.8,-6.1,6.1c0,3.4,2.7,6.1,6.1,6.1c3.4,0,6.1,-2.7,6.1,-6.1Z" class="g0"/>
<path d="M151.2,101.8c0,-3.3,-2.7,-6.1,-6.1,-6.1c-3.3,0,-6,2.8,-6,6.1c0,3.4,2.7,6.1,6,6.1c3.4,0,6.1,-2.7,6.1,-6.1Z" class="g0"/>
<path d="M229.2,101.8c0,-3.3,-2.7,-6.1,-6.1,-6.1c-3.4,0,-6.1,2.8,-6.1,6.1c0,3.4,2.7,6.1,6.1,6.1c3.4,0,6.1,-2.7,6.1,-6.1Z" class="g0"/>
<path d="M229.2,58.5c0,-3.3,-2.7,-6.1,-6.1,-6.1c-3.4,0,-6.1,2.8,-6.1,6.1c0,3.4,2.7,6.1,6.1,6.1c3.4,0,6.1,-2.7,6.1,-6.1Z" class="g0"/>
<path d="M185.9,15.2c0,-3.3,-2.7,-6.1,-6.1,-6.1c-3.4,0,-6.1,2.8,-6.1,6.1c0,3.4,2.7,6.1,6.1,6.1c3.4,0,6.1,-2.7,6.1,-6.1Z" class="g0"/>
<path d="M175.6,63.8c-10.3,12.8,-16,19.9,-26.3,32.8" class="g1"/>
<path d="M149.9,95.9c1.5,-1.3,3.4,-2.3,5.9,-3.3c-2.8,.7,-4.1,-.2,-4,-3.2c-.4,2.7,-1,4.7,-1.9,6.5Z" class="g4"/>
<path d="M186.5,58.5c11.7,0,18.2,0,29.9,0" class="g1"/>
<path d="M215.6,58.5c-1.9,-.4,-3.9,-1.2,-6.3,-2.5c2.4,1.7,2.4,3.3,0,5.1c2.4,-1.4,4.4,-2.2,6.3,-2.6Z" class="g2"/>
<path d="M223.1,95.1c0,-11.6,0,-18.2,0,-29.9" class="g1"/>
<path d="M223.1,66c-.4,2,-1.2,3.9,-2.6,6.3c1.8,-2.4,3.4,-2.4,5.2,0C224.3,69.9,223.5,68,223.1,66Z" class="g2"/>
<path d="M218.4,53.8C205.1,40.5,197.8,33.2,184.5,20" class="g1"/>
<path d="M185.1,20.6c1.2,1.6,2,3.6,2.7,6.3c-.4,-3,.7,-4.1,3.7,-3.7c-2.7,-.7,-4.7,-1.5,-6.4,-2.6Z" class="g3"/>
<path d="M179.8,21.9c0,11.7,0,18.3,0,29.9" class="g1"/>
<path d="M179.8,51.1c.4,-2,1.2,-4,2.6,-6.4c-1.8,2.4,-3.4,2.4,-5.2,0c1.4,2.4,2.2,4.4,2.6,6.4Z" class="g2"/>
<path d="M107.7,55.3L173.9,18.5" class="g5"/>
<path d="M173,19c-2.9,.9,-5.9,1.3,-10,1.2c4.3,.6,5.5,2.6,3.7,6.6c2,-3.5,4,-5.9,6.3,-7.8Z" class="g6"/>
<path d="M108.5,58.5h64.6" class="g5"/>
<path d="M171.9,58.5c-2.9,-.6,-5.8,-1.7,-9.3,-3.7c3.5,2.6,3.5,4.9,0,7.5c3.5,-2,6.4,-3.2,9.3,-3.8Z" class="g7"/>
<path d="M65.2,101.8h73.2" class="g5"/>
<path d="M137.2,101.8c-2.9,-.5,-5.8,-1.7,-9.2,-3.7c3.4,2.6,3.4,4.9,0,7.5c3.4,-2,6.3,-3.2,9.2,-3.8Z" class="g7"/>
<path d="M94.5,.9H22.6C10.6,.9,.9,10.6,.9,22.6V94.5c0,11.9,9.7,21.6,21.7,21.6H94.5c11.9,0,21.6,-9.7,21.6,-21.6V22.6C116.1,10.6,106.4,.9,94.5,.9ZM215.8,.9H152.5c-12,0,-21.7,9.7,-21.7,21.7V94.5c0,11.9,9.7,21.6,21.7,21.6h63.3c11.9,0,21.6,-9.7,21.6,-21.6V22.6C237.4,10.6,227.7,.9,215.8,.9Z" class="g8"/>

</g>
</svg>
